<svg width="22" height="19" viewBox="0 0 22 19" fill="none" xmlns="http://www.w3.org/2000/svg">
<path d="M10.999 4C13.759 4 15.999 6.24 15.999 9C15.999 9.65 15.869 10.26 15.639 10.83L18.559 13.75C20.069 12.49 21.259 10.86 21.989 9C20.259 4.61 15.989 1.5 10.989 1.5C9.58902 1.5 8.24902 1.75 7.00902 2.2L9.16902 4.36C9.73902 4.13 10.349 4 10.999 4ZM0.999023 1.27L3.27902 3.55L3.73902 4.01C2.07902 5.3 0.779023 7.02 -0.000976562 9C1.72902 13.39 5.99902 16.5 10.999 16.5C12.549 16.5 14.029 16.2 15.379 15.66L15.799 16.08L18.729 19L19.999 17.73L2.26902 0L0.999023 1.27ZM6.52902 6.8L8.07902 8.35C8.02902 8.56 7.99902 8.78 7.99902 9C7.99902 10.66 9.33902 12 10.999 12C11.219 12 11.439 11.97 11.649 11.92L13.199 13.47C12.529 13.8 11.789 14 10.999 14C8.23902 14 5.99902 11.76 5.99902 9C5.99902 8.21 6.19902 7.47 6.52902 6.8ZM10.839 6.02L13.989 9.17L14.009 9.01C14.009 7.35 12.669 6.01 11.009 6.01L10.839 6.02Z" fill="#0078F0" fill-opacity="0.44"/>
</svg>
